<?xml version="1.0" encoding="UTF-8" standalone="no"?>
<svg xmlns:dc="http://purl.org/dc/elements/1.1/" xmlns:cc="http://creativecommons.org/ns#" xmlns:rdf="http://www.w3.org/1999/02/22-rdf-syntax-ns#" xmlns:svg="http://www.w3.org/2000/svg" xmlns="http://www.w3.org/2000/svg" id="svg1235" version="1.1" viewBox="0 0 54.494289 53.190769" height="53.190769mm" width="54.494289mm">
  <defs id="defs1229"/>
  <metadata id="metadata1232">
    <rdf:RDF>
      <cc:Work rdf:about="">
        <dc:format>image/svg+xml</dc:format>
        <dc:type rdf:resource="http://purl.org/dc/dcmitype/StillImage"/>
        <dc:title/>
      </cc:Work>
    </rdf:RDF>
  </metadata>
  <g transform="translate(-45.823219,-119.37951)" id="layer1">
    <path d="m 93.092971,129.48165 -15.73389,-9.08332 c -1.17616,-0.6791 -2.727148,-1.01882 -4.277712,-1.01882 v 53.19077 c 1.550564,0 3.101269,-0.33937 4.277432,-1.01882 l 15.734522,-9.08403 c 2.352675,-1.35855 4.277431,-4.69265 4.277431,-7.40904 v -18.16805 c 0,-2.71674 -1.925108,-6.05085 -4.277783,-7.40869" style="fill:#064365;fill-opacity:1;fill-rule:nonzero;stroke:none;stroke-width:0.03527778" id="path846"/>
    <path d="m 68.803939,120.39833 -15.733748,9.08332 c -2.352745,1.35784 -4.27785,4.69195 -4.27785,7.40869 v 18.16805 c 0,2.71639 1.925105,6.05049 4.277427,7.40904 l 15.734171,9.08403 c 1.176443,0.67945 2.727149,1.01882 4.27743,1.01882 v -53.19077 c -1.550705,0 -3.101269,0.33972 -4.27743,1.01882" style="fill:#0f85d1;fill-opacity:1;fill-rule:nonzero;stroke:none;stroke-width:0.03527778" id="path848"/>
    <path d="m 91.701969,149.7251 c 0,3.84986 -2.728031,8.57497 -6.062133,10.50008 l -6.496193,3.75073 c -3.334174,1.92476 -8.790092,1.92476 -12.124266,0 l -6.496085,-3.75073 c -3.334138,-1.92511 -6.062133,-6.65022 -6.062133,-10.50008 v -7.50112 c 0,-3.85021 2.727995,-8.57496 6.062274,-10.50007 l 6.495662,-3.75003 c 3.334456,-1.92476 8.790374,-1.92476 12.124796,0 l 6.49559,3.75003 c 3.334457,1.92511 6.062488,6.64986 6.062488,10.50007 v 7.50112" style="fill:#ffffff;fill-opacity:1;fill-rule:nonzero;stroke:none;stroke-width:0.03527778" id="path850"/>
    <path d="m 100.31751,157.96458 v -0.049 H 45.823908 l -6.89e-4,0.049 1.891358,4.38644 -1.891358,4.38573 6.89e-4,0.0497 h 54.493602 v -0.0497 l -1.890539,-4.38573 1.890539,-4.38644" style="fill:#393536;fill-opacity:1;fill-rule:nonzero;stroke:none;stroke-width:0.03527778" id="path852"/>
    <path d="m 59.436842,163.33632 c 0.596019,0 0.98806,-0.42368 0.98806,-1.03505 0,-0.61665 -0.392041,-1.03469 -0.98806,-1.03469 -0.590479,0 -0.982521,0.41804 -0.982521,1.03469 0,0.61137 0.392042,1.03505 0.982521,1.03505 z m 0,-2.93758 c 1.050784,0 1.90239,0.79975 1.90239,1.90253 0,1.10314 -0.851606,1.90253 -1.90239,1.90253 -1.050748,0 -1.89685,-0.79939 -1.89685,-1.90253 0,-1.10278 0.846102,-1.90253 1.89685,-1.90253" style="fill:#ffffff;fill-opacity:1;fill-rule:nonzero;stroke:none;stroke-width:0.03527778" id="path854"/>
    <path d="m 63.268891,162.16016 c 0.339302,0 0.543666,-0.16192 0.543666,-0.43356 0,-0.27199 -0.204364,-0.43357 -0.543666,-0.43357 h -0.501579 v 0.86713 z m 0.01588,-1.68804 c 0.898737,0 1.442367,0.47025 1.442367,1.25448 0,0.78387 -0.54363,1.25412 -1.442367,1.25412 h -0.517454 v 1.15006 h -0.878241 v -3.65866 h 1.395695" style="fill:#ffffff;fill-opacity:1;fill-rule:nonzero;stroke:none;stroke-width:0.03527778" id="path856"/>
    <path d="m 67.878991,163.30987 v 0.82091 h -2.691589 v -3.65866 h 2.660297 v 0.82091 h -1.782056 v 0.60079 h 1.395271 v 0.76799 h -1.395271 v 0.64806 h 1.813348" style="fill:#ffffff;fill-opacity:1;fill-rule:nonzero;stroke:none;stroke-width:0.03527778" id="path858"/>
    <path d="m 71.935406,160.47212 v 3.65866 H 71.109518 L 70.36237,163.1116 c -0.33461,-0.46002 -0.825853,-1.15499 -0.830968,-1.15499 h -0.0052 c -0.0053,0 0.0052,0.56409 0.0052,1.36419 v 0.80998 h -0.87824 v -3.65866 h 0.825888 l 0.778863,1.04528 c 0.23495,0.31362 0.79442,1.10243 0.799676,1.10243 h 0.0048 c 0.0055,0 -0.0048,-0.64805 -0.0048,-1.31127 v -0.83644 h 0.877817" style="fill:#ffffff;fill-opacity:1;fill-rule:nonzero;stroke:none;stroke-width:0.03527778" id="path860"/>
    <path d="m 76.964394,163.30987 c 0.522711,0 0.977442,-0.36548 0.977442,-0.99272 0,-0.62689 -0.454731,-1.02412 -0.977442,-1.02412 h -0.720971 v 2.01684 z m 0,-2.83775 c 1.045245,0 1.892194,0.74754 1.892194,1.84503 0,1.09714 -0.846949,1.81363 -1.892194,1.81363 h -1.599213 v -3.65866 h 1.599213" style="fill:#ffffff;fill-opacity:1;fill-rule:nonzero;stroke:none;stroke-width:0.03527778" id="path862"/>
    <path d="m 81.125338,162.78705 -0.260951,-0.71085 c -0.07856,-0.20849 -0.172683,-0.53798 -0.177763,-0.53798 h -0.0055 c -0.0053,0 -0.09938,0.32949 -0.17752,0.53798 l -0.261548,0.71085 z m 0.282223,0.7687 h -1.447589 l -0.208774,0.57503 h -0.946434 l 1.463607,-3.65866 h 0.830826 l 1.463709,3.65866 h -0.94615 l -0.209195,-0.57503" style="fill:#ffffff;fill-opacity:1;fill-rule:nonzero;stroke:none;stroke-width:0.03527778" id="path864"/>
    <path d="m 85.338914,160.47212 v 0.82091 h -1.113718 v 2.83775 h -0.878065 v -2.83775 h -1.097137 v -0.82091 h 3.08892" style="fill:#ffffff;fill-opacity:1;fill-rule:nonzero;stroke:none;stroke-width:0.03527778" id="path866"/>
    <path d="m 87.345869,162.78705 -0.261056,-0.71085 c -0.07832,-0.20849 -0.172509,-0.53798 -0.1778,-0.53798 h -0.0053 c -0.0053,0 -0.09948,0.32949 -0.178152,0.53798 l -0.260705,0.71085 z m 0.28222,0.7687 h -1.4478 l -0.208843,0.57503 h -0.94615 l 1.463323,-3.65866 h 0.831495 l 1.462972,3.65866 h -0.945798 l -0.209199,-0.57503" style="fill:#ffffff;fill-opacity:1;fill-rule:nonzero;stroke:none;stroke-width:0.03527778" id="path868"/>
    <path d="m 80.625839,144.08312 v 10.95022 h -4.289671 v -10.95022 h 4.289671" style="fill:#0f85d1;fill-opacity:1;fill-rule:nonzero;stroke:none;stroke-width:0.03527778" id="path870"/>
    <path d="m 75.227529,139.70727 v 15.32607 h -4.290237 v -15.32607 h 4.290237" style="fill:#0f85d1;fill-opacity:1;fill-rule:nonzero;stroke:none;stroke-width:0.03527778" id="path872"/>
    <path d="m 69.829041,148.45863 v 6.57471 h -4.291895 v -6.57471 h 4.291895" style="fill:#0f85d1;fill-opacity:1;fill-rule:nonzero;stroke:none;stroke-width:0.03527778" id="path874"/>
  </g>
</svg>